<svg viewBox="0 0 24 24" xmlns="http://www.w3.org/2000/svg"><path d="m6.5 12c0 .4.3.7.7.7h4s.1 0 .1.1v4c0 .4.3.7.7.7s.7-.3.7-.7v-4s0-.1.1-.1h4c.4 0 .7-.3.7-.7s-.3-.7-.7-.7h-4s-.1 0-.1-.1v-4c0-.4-.3-.7-.7-.7s-.7.3-.7.7v4s0 .1-.1.1h-4c-.4 0-.7.3-.7.7z"/><path d="m11.2 2.6h.5c3.5.2 7.6 2.9 9.4 6.4 1.2 2.4 1.1 4.7-.1 6.8-2 3.3-7 5.7-11.7 5.7s-4.6-.3-6.1-2.4c-1.3-1.7-1.3-4.5-.2-7.9s0 0 0 0c.3-1 .7-2 1.2-3.2.5-1 .9-1.7 1.3-2.3 1.3-1.8 3.6-2.9 5.7-2.9m-0-2.3c-2.8 0-5.7 1.5-7.4 3.8-.6.8-1.1 1.7-1.5 2.7-.5 1.1-1 2.3-1.4 3.5-3 9.3 2.1 13.1 8.3 13.1s18.1-6.5 13.7-15.5c-2.1-3.9-6.7-7.2-11.1-7.5-.2 0-.4 0-.6 0z"/></svg>